<?xml version="1.0" encoding="utf-8"?>
<!-- Generator: Adobe Illustrator 28.0.0, SVG Export Plug-In . SVG Version: 6.00 Build 0)  -->
<svg version="1.1" id="Capa_1" xmlns="http://www.w3.org/2000/svg" xmlns:xlink="http://www.w3.org/1999/xlink" x="0px" y="0px"
	 viewBox="0 0 20.4 30.1" style="enable-background:new 0 0 20.4 30.1;" xml:space="preserve">
<style type="text/css">
	.st0{fill:#FFFFFF;stroke:#636363;stroke-miterlimit:10;}
	.st1{fill:#FFFFFF;stroke:#636363;stroke-width:0.75;stroke-miterlimit:10;}
	.st2{fill:none;stroke:#636363;stroke-width:0.75;stroke-miterlimit:10;}
	.st3{fill:#FFFFFF;stroke:#636363;stroke-width:0.5;stroke-miterlimit:10;}
	.st4{fill:none;stroke:#636363;stroke-width:0.5;stroke-miterlimit:10;}
	.st5{fill:none;stroke:#636363;stroke-width:0.25;stroke-miterlimit:10;}
</style>
<polygon class="st0" points="18.1,29.5 0.5,25.6 0.5,3.7 18.1,7.5 "/>
<polygon class="st0" points="19.9,19.8 0.5,24.7 0.5,3 19.9,0.6 "/>
<polygon class="st0" points="18.2,29.1 0.5,25.2 0.5,3.2 18.2,7.1 "/>
<path class="st1" d="M3.8,16.7l8.3,2.6c0.1,0,0.2,0,0.3-0.1l0.9-1.2c0.1-0.1,0-0.3-0.1-0.4l-7.5-2.3c-0.1,0-0.2,0-0.2,0.1L3.8,16.7
	L3.8,16.7L3.8,16.7z"/>
<path class="st2" d="M3.4,18.9l8.3,2.7c0.4,0.1,0.8,0,1-0.2l0.8-0.8c0.1-0.1,0.2-0.4,0.3-0.6l0.2-2.4"/>
<line class="st2" x1="3.4" y1="16.9" x2="3.7" y2="19.3"/>
<polyline class="st2" points="9.4,16.4 7.9,17.7 7.8,20.5 "/>
<line class="st2" x1="9.5" y1="14.2" x2="9.4" y2="16.1"/>
<path class="st2" d="M13.9,17.8v-1.7c0-0.4-0.3-0.8-0.7-0.9L6,13.4c-0.2-0.1-0.5,0.1-0.5,0.4l0,1.7"/>
<polygon class="st3" points="9.2,12.4 5.5,11.6 5.5,8.6 9.2,9.4 "/>
<polygon class="st3" points="14.8,13.5 11.1,12.7 11.1,9.7 14.8,10.4 "/>
<polyline class="st3" points="3.6,18.2 1.9,17.6 0.8,18.5 "/>
<polyline class="st4" points="13.4,21.1 16.1,22.1 13,26.8 0.5,22 "/>
<line class="st5" x1="0.7" y1="19.3" x2="14.6" y2="24.2"/>
<line class="st5" x1="0.5" y1="20.5" x2="13.9" y2="25.4"/>
<line class="st5" x1="17.8" y1="1.2" x2="17.8" y2="7"/>
<line class="st5" x1="11.3" y1="1.6" x2="11.3" y2="5.2"/>
<line class="st5" x1="20.1" y1="12.4" x2="18.1" y2="12.4"/>
</svg>
