<?xml version="1.0" encoding="UTF-8"?>
<svg id="Capa_1" data-name="Capa 1" xmlns="http://www.w3.org/2000/svg" width="14.84mm" height="15.57mm" viewBox="0 0 42.06 44.14">
  <polyline points="10.49 20.41 .5 26.36 .5 29.41 24.51 43.56 41.56 33.71 41.56 30.82 31.12 24.95" fill="#fff" stroke="#1d1d1b" stroke-miterlimit="10"/>
  <polyline points="27.64 8.84 31.06 15.08 31.06 33.95 28.08 35.89 10.32 26.11 10.32 2.86 10.49 2.86" fill="#fff" stroke="#1d1d1b" stroke-miterlimit="10"/>
  <polyline points="41.56 30.82 24.61 40.68 .5 26.36" fill="none" stroke="#1d1d1b" stroke-miterlimit="10"/>
  <line x1="24.51" y1="43.56" x2="24.51" y2="40.49" fill="none" stroke="#1d1d1b" stroke-miterlimit="10"/>
  <path d="m12.77.54l-2.34,1.56c-.15.1-.14.32.01.41l14.27,8.37c.08.05.19.04.26,0l2.61-1.78c.15-.1.14-.33-.02-.42L13.03.53c-.08-.05-.18-.04-.26,0Z" fill="#fff" stroke="#1d1d1b" stroke-miterlimit="10"/>
  <polyline points="24.88 10.89 28.22 16.33 28.22 36.17" fill="none" stroke="#1d1d1b" stroke-miterlimit="10"/>
  <line x1="13.77" y1="10.89" x2="22.77" y2="16.17" fill="none" stroke="#1d1d1b" stroke-miterlimit="10"/>
  <line x1="13.9" y1="14.89" x2="22.24" y2="19.81" fill="none" stroke="#1d1d1b" stroke-miterlimit="10"/>
  <line x1="13.77" y1="18.86" x2="19.85" y2="22.54" fill="none" stroke="#1d1d1b" stroke-miterlimit="10"/>
  <path d="m34.56,16.13l-13.26,10.62-2.54,5.49,5.62-1.25,13.32-10.56c.43-.34.5-.95.17-1.39l-2.09-2.76c-.29-.39-.85-.45-1.22-.15Z" fill="#fff" stroke="#1d1d1b" stroke-miterlimit="10"/>
  <line x1="32.9" y1="17.63" x2="35.71" y2="21.62" fill="none" stroke="#1d1d1b" stroke-miterlimit="10"/>
  <path d="m34.75,20.89c-.11.02-11.36,9.15-11.36,9.15" fill="none" stroke="#1d1d1b" stroke-miterlimit="10" stroke-width="2"/>
  <polyline points="21.32 26.86 22.16 29.41 24.08 30.89" fill="none" stroke="#1d1d1b" stroke-miterlimit="10"/>
</svg>