<?xml version="1.0" encoding="UTF-8"?>
<svg id="Capa_1" data-name="Capa 1" xmlns="http://www.w3.org/2000/svg" width="21.6mm" height="15.44mm" viewBox="0 0 61.23 43.78">
  <polygon points="9.54 21.95 .57 29.28 .57 35.81 23.6 43.78 29.7 35.35 29.56 28.22 9.54 21.95" fill="#fff" stroke-width="0"/>
  <path d="m9.37,21.69L.46,29.02c-.24.19-.19.72.08.8l23.03,7.64c.1.03.2,0,.27-.12l5.84-8.57c.16-.25.09-.66-.14-.73l-19.95-6.4c-.07-.02-.14,0-.21.05Z" fill="none" stroke="#3a3a3a" stroke-miterlimit="10" stroke-width=".5"/>
  <line x1=".31" y1="29.28" x2=".31" y2="36.33" fill="none" stroke="#3a3a3a" stroke-miterlimit="10" stroke-width=".5"/>
  <path d="m29.76,28.22v5.68s0,1.12,0,1.13l-5.94,8.08c-.04.05-.1.02-.1-.05v-5.78" fill="none" stroke="#3a3a3a" stroke-miterlimit="10" stroke-width=".5"/>
  <polygon points="21.27 29.04 18.27 31.23 10.47 29.26 10.11 25.97 10.11 2.3 13.76 .03 21.47 1.94 21.27 29.04" fill="#fff" stroke-width="0"/>
  <line x1=".07" y1="35.91" x2="23.83" y2="43.11" fill="none" stroke="#3a3a3a" stroke-miterlimit="10" stroke-width=".5"/>
  <line x1="18.47" y1="31.42" x2="18.47" y2="4.35" fill="none" stroke="#3a3a3a" stroke-miterlimit="10" stroke-width=".5"/>
  <line x1="21.4" y1="29.26" x2="21.4" y2="2.03" fill="none" stroke="#3a3a3a" stroke-miterlimit="10" stroke-width=".5"/>
  <line x1="10.28" y1="2.38" x2="10.28" y2="29.34" fill="none" stroke="#3a3a3a" stroke-miterlimit="10" stroke-width=".5"/>
  <path d="m13.61.27l-3.27,1.98c-.13.08-.1.3.05.33l7.94,1.77s.08,0,.12-.02l2.86-1.97c.12-.09.09-.29-.05-.33L13.72.25s-.08,0-.11.02Z" fill="none" stroke="#3a3a3a" stroke-miterlimit="10" stroke-width=".5"/>
  <polyline points="9.93 28.87 18.54 31.12 21.6 28.88" fill="none" stroke="#3a3a3a" stroke-miterlimit="10" stroke-width=".5"/>
</svg>